# xmcd CD database file
#
# Track frame offsets:
#	150
#	28330
#	48210
#	68485
#	85350
#	103835
#	123295
#	140790
#	152910
#	184765
#	207240
#	227260
#	246260
#	274360
#	296190
#	323180
#
# Disc length: 4547 seconds
#
# Revision: 0
# Processed by: cddbd v1.5.2PL0 Copyright (c) Steve Scherf et al.
# Submitted via: Feurio! 1.68 - http://www.feurio.com
#
DISCID=f111c110
DTITLE=Various Artist - Discover Stepping
DYEAR=1900
DGENRE=R&B
TTITLE0=Kashef - Sexy Girl
TTITLE1=Marzette Griffith - Keep On Steppin'
TTITLE2=Michael Jackson - In The Back
TTITLE3=Guest - Must Have It
TTITLE4=Incognito - Fences and Barriers
TTITLE5=Mary J. Blige - Only You (Remix)
TTITLE6=Usher, Lil Jon, Ludacris - Lovers and Friends
TTITLE7=Fantasia - Truth Is
TTITLE8=Jimmy McGriff - It Feels So Nice
TTITLE9=Ray Goodman - Love's Gonna Last (Jazz)
TTITLE10=Michael Jackson - The Way You Love Me
TTITLE11=Swing Out Sister - Happy Ending
TTITLE12=Lou Johnson - Step Wit U
TTITLE13=Shapro - JB's Ga Ga (Remix)
TTITLE14=Walter Beasley - All I Want
TTITLE15=Gerald Levert - Want To Make It With You
EXTD=
EXTT0=
EXTT1=
EXTT2=
EXTT3=
EXTT4=
EXTT5=
EXTT6=
EXTT7=
EXTT8=
EXTT9=
EXTT10=
EXTT11=
EXTT12=
EXTT13=
EXTT14=
EXTT15=
PLAYORDER=
